<svg width="541" height="135" viewBox="0 0 541 135" fill="none" xmlns="http://www.w3.org/2000/svg">
<path d="M207.775 111H179.661V22.0733H207.775C236.138 22.0733 252.486 40.1559 252.486 66.1651C252.486 91.8027 235.518 111 207.775 111ZM193.284 33.8393V99.2339H207.156C227.592 99.2339 238.615 86.6009 238.615 66.1651C238.615 46.1008 227.716 33.8393 207.156 33.8393H193.284Z" fill="#FBFBFF"/>
<path d="M280.988 30.1237C280.988 34.8302 277.272 38.4219 271.947 38.4219C266.621 38.4219 262.782 34.8302 262.782 30.1237C262.782 25.2935 266.621 21.8256 271.947 21.8256C277.272 21.8256 280.988 25.2935 280.988 30.1237ZM278.263 111H265.754V45.3577H278.263V111Z" fill="#FBFBFF"/>
<path d="M308.138 111H295.629V45.3577H307.271V56.2568C311.73 48.7017 318.789 44.1192 327.831 44.1192C337.491 44.1192 344.799 49.0733 347.771 57.743C352.354 49.321 359.909 44.1192 369.941 44.1192C383.441 44.1192 392.111 52.9128 392.111 68.5183V111H379.602V72.4816C379.602 61.5825 374.771 55.1421 365.606 55.1421C357.06 55.1421 350.124 62.3256 350.124 73.3486V111H337.615V72.4816C337.615 61.5825 332.785 55.1421 323.62 55.1421C314.95 55.1421 308.138 62.3256 308.138 73.3486V111Z" fill="#FBFBFF"/>
<path d="M435.839 112.239C416.889 112.239 404.132 98.4908 404.132 77.8073C404.132 58.3623 417.385 44.1192 435.467 44.1192C455.036 44.1192 468.041 60.9724 465.811 82.2752H416.889C417.88 95.6514 424.568 102.454 435.591 102.454C444.88 102.454 451.32 97.3761 453.426 88.8303H465.811C462.591 103.445 451.32 112.239 435.839 112.239ZM435.219 53.532C425.187 53.532 418.375 60.7155 417.013 72.977H452.559C451.94 60.8394 445.375 53.532 435.219 53.532Z" fill="#FBFBFF"/>
<path d="M501.485 82.2752H462.966V72.977H501.485V82.2752Z" fill="#FBFBFF"/>
<path d="M490.95 111H476.83L500.115 77.4357L478.317 45.3577H492.807L509.032 70.1284L525.257 45.3577H538.757L517.207 77.8073L540.243 111H525.876L508.289 84.8669L490.95 111Z" fill="#FBFBFF"/>
<path fill-rule="evenodd" clip-rule="evenodd" d="M67.1178 77.8447C67.0457 77.8438 66.9845 77.8987 66.9778 77.9706C65.5685 93.1648 61.2335 106.033 55.4352 113.628C53.4218 116.266 52.4153 119.795 53.9486 122.738C57.828 130.183 62.4881 134.541 67.4254 134.541C72.3302 134.541 76.884 130.24 80.6518 122.885C82.1602 119.94 81.1314 116.427 79.1352 113.789C73.4611 106.288 69.2863 93.5209 67.8901 78.4115C67.8603 78.0884 67.5806 77.8456 67.2561 77.8456C67.21 77.8456 67.1638 77.8453 67.1178 77.8447Z" fill="#FBFBFF"/>
<path fill-rule="evenodd" clip-rule="evenodd" d="M67.2561 56.7238C67.5779 56.7238 67.855 56.4829 67.8844 56.1625C69.2745 41.0313 73.4506 28.2434 79.1295 20.7314C81.1244 18.0926 82.1513 14.5805 80.6419 11.6371C76.8761 4.29311 72.3259 0 67.4254 0C62.4923 0 57.8359 4.35048 53.9586 11.7842C52.4244 14.7255 53.429 18.2546 55.4412 20.8921C61.2475 28.5028 65.5855 41.402 66.9859 56.6289C66.9909 56.6838 67.0377 56.7259 67.0929 56.725C67.1472 56.7242 67.2016 56.7238 67.2561 56.7238Z" fill="#FBFBFF"/>
<path fill-rule="evenodd" clip-rule="evenodd" d="M74.8254 74.6493C74.6625 74.8167 74.6475 75.0818 74.7962 75.2618C84.4453 86.9396 90.4173 99.0189 91.6806 108.435C92.1219 111.724 93.9059 114.931 97.0709 115.928C105.079 118.449 111.455 118.236 114.947 114.744C118.415 111.276 118.594 105.015 116.057 97.1499C115.041 94.001 111.83 92.2447 108.553 91.7903C99.2 90.4936 87.163 84.3754 75.4486 74.6123C75.2649 74.4592 74.9922 74.478 74.8254 74.6493Z" fill="#FBFBFF"/>
<path fill-rule="evenodd" clip-rule="evenodd" d="M59.8915 59.7154C60.0626 59.5488 60.0813 59.2765 59.9284 59.0931C50.1659 47.3809 44.0468 35.3457 42.7471 25.993C42.2918 22.7165 40.5346 19.5069 37.3859 18.4929C29.5301 15.9628 23.277 16.1446 19.8118 19.6097C16.3236 23.098 16.1073 29.4668 18.622 37.4649C19.617 40.6296 22.8228 42.4146 26.1106 42.8568C35.527 44.1232 47.6043 50.0961 59.2798 59.7445C59.4596 59.8931 59.7243 59.878 59.8915 59.7154Z" fill="#FBFBFF"/>
<path fill-rule="evenodd" clip-rule="evenodd" d="M56.6953 67.2848C56.6953 67.1189 56.5695 66.978 56.4044 66.9624C41.2825 65.537 28.4804 61.2125 20.9128 55.4354C18.2754 53.4219 14.7459 52.4155 11.8033 53.9487C4.35793 57.8281 -5.04195e-06 62.4882 -5.04195e-06 67.4255C-6.47803e-06 72.3303 4.30059 76.8841 11.6562 80.6519C14.601 82.1603 18.1136 81.1315 20.7523 79.1354C28.2575 73.4578 41.0351 69.2815 56.1562 67.8878C56.4638 67.8594 56.6953 67.5936 56.6953 67.2848Z" fill="#FBFBFF"/>
<path fill-rule="evenodd" clip-rule="evenodd" d="M77.8171 67.2848C77.8171 67.5909 78.0467 67.8542 78.3515 67.8821C93.4944 69.2697 106.293 73.4473 113.81 79.1296C116.448 81.1245 119.96 82.1514 122.904 80.6421C130.248 76.8762 134.541 72.326 134.541 67.4256C134.541 62.4924 130.19 57.8361 122.757 53.9587C119.815 52.4245 116.286 53.4291 113.649 55.4413C106.07 61.2234 93.2467 65.5494 78.103 66.9683C77.9407 66.9835 77.8171 67.1218 77.8171 67.2848Z" fill="#FBFBFF"/>
<path fill-rule="evenodd" clip-rule="evenodd" d="M59.8914 74.854C59.7226 74.6897 59.4552 74.6744 59.2736 74.8244C47.6063 84.457 35.5413 90.4187 26.1341 91.6808C22.8455 92.1221 19.6381 93.9061 18.6415 97.0711C16.12 105.079 16.3336 111.456 19.8249 114.947C23.293 118.415 29.5541 118.594 37.4195 116.057C40.5684 115.041 42.3247 111.83 42.779 108.553C44.0745 99.2092 50.1822 87.1863 59.9289 75.4825C60.0833 75.2972 60.0642 75.0222 59.8914 74.854Z" fill="#FBFBFF"/>
<path fill-rule="evenodd" clip-rule="evenodd" d="M74.8255 59.9202C74.9907 60.0899 75.2607 60.1084 75.4425 59.9567C87.1654 50.1778 99.2147 44.0482 108.576 42.7473C111.853 42.292 115.062 40.5347 116.076 37.3861C118.607 29.5303 118.425 23.2772 114.96 19.812C111.471 16.3237 105.103 16.1075 97.1045 18.6221C93.9398 19.6172 92.1547 22.823 91.7125 26.1108C90.445 35.5363 84.4617 47.6278 74.7969 59.3139C74.6495 59.492 74.6643 59.7545 74.8255 59.9202Z" fill="#FBFBFF"/>
</svg>
